<svg xmlns="http://www.w3.org/2000/svg" xmlns:xlink="http://www.w3.org/1999/xlink" viewBox="0 0 672.57 672.7"><defs><style>.cls-1{fill:url(#linear-gradient);}.cls-2{fill:url(#linear-gradient-2);}.cls-3{fill:url(#linear-gradient-3);}</style><linearGradient id="linear-gradient" y1="336.32" x2="672.57" y2="336.32" gradientUnits="userSpaceOnUse"><stop offset="0" stop-color="#15ffc2"/><stop offset="0.18" stop-color="#15f6c1"/><stop offset="0.48" stop-color="#15debe"/><stop offset="0.85" stop-color="#15b6b8"/><stop offset="1" stop-color="#15a4b6"/></linearGradient><linearGradient id="linear-gradient-2" x1="506.49" y1="632.1" x2="300.25" y2="381.92" xlink:href="#linear-gradient"/><linearGradient id="linear-gradient-3" x1="434.83" y1="516.33" x2="597.83" y2="516.33" xlink:href="#linear-gradient"/></defs><title>icon-gradient-transparent</title><g id="Layer_2" data-name="Layer 2"><g id="Transparent"><g id="icon-gradient-transparent"><path class="cls-1" d="M597.55,524.21a81.19,81.19,0,0,1-23.1,49.39l-.75.76q-1.51,1.53-3,3.14h0a335.21,335.21,0,0,1-234.41,95.14q-3.72,0-7.43-.09C146.58,668.62,0,519.6,0,336.33,0,150.58,150.58,0,336.33,0,519.59,0,668.62,146.57,672.57,328.88c-92.37-77.17-228.39-75.37-318.72,5.41q-5.13,4.57-10.05,9.5t-9.56,10.11A81.6,81.6,0,0,0,458.3,459l.67-.67a81.6,81.6,0,0,1,138.58,65.92Z"/><path class="cls-2" d="M597.55,524.21a83.18,83.18,0,0,1-9.09,30.31c-4.78,9-11.55,16.78-18.75,24a314.79,314.79,0,0,1-52.13,41.22,334.82,334.82,0,0,1-156.71,52.08q-8.62.62-17.29.8c-2.89.06-5.79.09-8.68.08-1.24,0-2.48,0-3.72.05a3.48,3.48,0,0,1-3-.91c-.72-.8-1.31-1.74-2-2.58-.93-1.17-1.88-2.31-2.8-3.48-1.74-2.17-3.4-4.42-5-6.68q-5-6.9-9.49-14.15a240.86,240.86,0,0,1-15.53-29.32,243.88,243.88,0,0,1,30.26-249q5.08-6.53,10.61-12.7A81.61,81.61,0,0,0,435.92,474.65a80.64,80.64,0,0,0,18.32-11.94c2.92-2.55,5.59-5.36,8.51-7.91a79,79,0,0,1,9.22-7,81.57,81.57,0,0,1,125.58,76.37Z"/><circle class="cls-3" cx="516.33" cy="516.33" r="81.5"/></g></g></g></svg>